<svg width="1435" height="588" viewBox="0 0 1435 588" fill="none" xmlns="http://www.w3.org/2000/svg">
<g clip-path="url(#clip0)">
<path d="M48.5452 71.2573C35.7596 84.244 26.1705 101.227 18.9786 117.61C2.79686 154.373 -15.7822 209.516 22.5745 238.886C42.552 254.271 78.5114 250.674 101.885 245.679C133.05 239.286 162.017 233.492 189.786 217.109C217.155 200.925 233.337 167.159 237.132 136.79C239.929 114.213 227.743 91.8363 213.359 74.8536C193.382 51.2776 162.017 43.6854 132.251 44.6844C115.669 45.2837 98.2891 47.2817 82.3071 51.2776C69.122 54.6742 57.9346 61.8668 48.5452 71.2573Z" fill="#99DDC6" fill-opacity="0.1"/>
</g>
<path d="M95.0733 126.404C94.8316 127.008 94.7108 127.854 94.7108 128.7C94.8316 133.05 97.0068 136.555 101.72 136.313C104.741 136.192 107.762 135.588 109.212 132.567C110.421 130.15 110.421 125.558 109.091 123.02C107.762 120.362 105.828 120.845 103.17 121.328C99.6654 122.053 96.1609 123.262 95.0733 126.404Z" fill="#FFD942"/>
<path d="M124.318 122.174C123.593 126.283 127.701 129.908 131.689 129.063C134.71 128.458 136.04 127.975 136.04 124.35C136.04 121.933 135.677 119.153 133.865 117.824C131.327 116.011 126.13 117.945 124.922 120.603C124.559 121.208 124.318 121.691 124.318 122.174Z" fill="#FFD942"/>
<path d="M107.279 152.869C106.07 156.132 109.937 156.253 111.871 155.648C114.65 154.802 116.825 153.715 116.1 150.331C114.771 143.685 109.816 149.727 107.279 152.869Z" fill="#FFD942"/>
<path d="M149.695 116.374C150.058 119.395 150.058 120.482 153.079 120.966C155.738 121.449 156.946 119.757 157.671 117.22C159.242 111.902 151.991 112.386 149.695 116.374Z" fill="#FFD942"/>
<path d="M122.143 100.301C121.538 102.718 121.901 105.377 124.68 105.256C126.01 105.256 127.46 104.652 128.064 103.322C129.031 101.026 124.197 98.247 122.868 99.818" fill="#FFD942"/>
<path d="M66.6747 75.6491C67.0372 75.4074 67.5206 75.1657 67.8832 75.0449C68.6082 74.6823 69.575 74.199 70.4209 74.0781C71.0251 73.9573 71.7502 73.8364 72.3544 73.8364C73.442 73.7156 74.5296 73.8364 75.4964 73.9573C76.8257 74.199 78.155 74.6823 79.3634 75.2866C80.6927 76.0116 81.9012 76.7367 83.1096 77.5826C84.6806 78.6702 86.1308 79.7578 87.4601 81.208C88.4268 82.2956 89.031 83.504 89.1519 84.9542C89.1519 86.2835 88.6685 87.7336 87.7017 88.7004C85.6474 90.8756 82.3846 90.7547 80.2094 88.8212C78.8801 87.7336 77.7924 86.5252 76.4632 85.4376C75.6172 84.8333 74.7713 84.35 73.8046 83.8666L73.2003 83.7457H73.0795L72.8378 83.8666C72.3544 84.1083 71.871 84.35 71.3877 84.7125L71.0251 84.9542C70.5417 85.3167 70.1792 85.8001 69.8167 86.1626C69.4541 86.646 69.2125 87.1294 68.9708 87.6128C68.7291 88.217 68.6082 88.9421 68.4874 89.5463C68.4874 90.3922 68.4874 91.359 68.6082 92.2049C69.0916 94.8635 69.9375 97.4012 70.7834 99.939C71.6294 102.477 69.8167 105.377 67.2789 106.102C66.0705 106.465 64.6203 106.344 63.5327 105.619C62.3243 104.894 61.5992 103.927 61.1158 102.598C60.6325 101.027 60.0282 99.3347 59.5448 97.7638C59.0615 95.9511 58.6989 94.2592 58.4572 92.4466C57.9739 88.3378 58.9406 83.9874 61.2367 80.6038C62.8077 78.7911 64.6203 76.9784 66.6747 75.6491ZM72.5961 83.8666H72.4753H72.5961ZM73.8046 83.7457H73.6837H73.8046Z" fill="#4A245E"/>
<path d="M119.967 48.5796L120.33 48.338C121.538 47.7337 122.747 47.1295 124.076 46.8878C125.647 46.5253 127.218 46.5253 128.789 47.0087C130.964 47.6129 132.656 49.1839 134.106 50.8757C135.073 52.0841 136.04 53.1718 136.644 54.501C137.127 55.2261 137.248 56.072 137.369 56.918C137.369 57.2805 137.248 57.7639 137.248 58.1264C137.007 58.9723 136.644 59.6974 136.04 60.3016C135.194 61.2684 133.985 61.7518 132.656 61.7518C131.81 61.7518 131.085 61.5101 130.36 61.1475C129.514 60.6641 128.789 60.0599 128.185 59.3349C127.943 58.9723 127.701 58.7306 127.339 58.3681C126.856 57.7639 126.372 57.1596 125.889 56.6763L125.647 56.7971C125.285 57.0388 124.801 57.2805 124.439 57.5222C123.834 58.1264 123.23 58.6098 122.747 59.3349L122.384 59.9391V60.0599V61.0267C122.868 63.927 123.955 66.5856 124.801 69.365C125.647 71.9027 123.834 74.5613 121.418 75.2864C120.209 75.6489 118.88 75.4072 117.792 74.803C116.584 74.1988 115.859 73.1112 115.496 71.9027C114.771 69.4858 113.804 67.1898 113.321 64.652C112.838 62.4768 112.475 60.1808 112.958 57.8847C113.442 55.4678 114.892 53.5343 116.463 51.7216C116.825 51.3591 117.188 50.8757 117.671 50.5132C118.276 49.7881 119.001 49.063 119.967 48.5796ZM125.526 56.4346H125.285H125.526ZM126.01 56.6763L125.889 56.5554L126.01 56.6763Z" fill="#4A245E"/>
<path d="M76.584 37.3411C75.8589 37.9453 75.1338 38.4287 74.4088 39.033C73.5628 39.8789 72.8378 40.7248 72.1127 41.8124C71.6293 42.5375 71.3876 43.3834 71.1459 44.1084C71.0251 44.471 70.9042 44.8335 70.7834 45.3169C70.4209 46.8879 70.5417 48.7006 70.9042 50.2715C71.5085 53.4135 72.9586 56.193 74.4088 58.9724C75.7381 61.5101 79.1217 62.1144 81.4178 60.7851C82.6262 60.06 83.4721 58.9724 83.7138 57.6431C84.0764 56.3138 83.8347 54.9845 83.1096 53.776C82.6262 52.8093 82.1428 51.9634 81.6595 50.9966C81.2969 50.0299 81.0552 49.1839 80.8135 48.2172V47.613L80.9344 47.1296L81.0552 46.8879C81.5386 46.2837 82.1428 45.8003 82.6262 45.3169C82.9888 45.0752 83.3513 44.8335 83.7138 44.7127L83.9555 44.5918C84.318 44.5918 84.8014 44.5918 85.164 44.5918C86.1307 44.7127 87.0975 44.9544 88.0642 45.3169C88.6685 45.5586 89.1518 45.8003 89.7561 46.1628C90.602 46.6462 91.3271 47.1296 92.173 47.613C93.8648 48.5797 96.04 48.2172 97.3693 46.767C98.0944 45.9211 98.5778 44.8335 98.5778 43.7459C98.5778 42.5375 97.9735 41.5707 97.2485 40.6039C96.2817 39.5163 94.9524 38.6704 93.744 37.8245C92.4147 37.0994 91.0854 36.4952 89.6352 36.0118C88.0642 35.5284 86.6141 35.1659 85.0431 35.0451C82.3845 34.8034 79.6051 35.4076 77.309 36.7369C77.1882 36.9786 76.8257 37.0994 76.584 37.3411Z" fill="#4A245E"/>
<path d="M120.209 6.88825C118.759 8.58008 117.671 10.3928 116.825 12.568C116.221 14.0181 115.98 15.5891 115.617 17.1601C115.375 18.3685 115.496 19.6978 116.1 20.7854C116.705 21.873 117.792 22.5981 119.001 22.9606C121.418 23.5649 124.318 21.9939 124.801 19.4561C125.043 18.1268 125.285 16.7975 125.768 15.4682C126.01 14.864 126.372 14.3806 126.614 13.8973C127.097 13.4139 127.46 12.8097 128.064 12.3263C128.306 12.0846 128.668 11.9637 129.031 11.7221L130.118 11.4804C130.602 11.4804 131.085 11.4804 131.569 11.4804C132.414 11.6012 133.381 11.8429 134.227 12.0846C134.711 12.3263 135.073 12.4471 135.436 12.6888C135.919 12.9305 136.402 13.293 136.886 13.6556C137.611 14.2598 138.336 14.864 139.061 15.4682C140.994 17.1601 144.016 17.2809 145.828 15.3474C147.641 13.5347 147.641 10.2719 145.707 8.58008C143.895 6.88825 142.082 5.43811 139.907 4.22966C138.819 3.62544 137.49 3.14206 136.282 2.77952C135.436 2.41699 134.348 2.29614 133.26 2.1753C132.173 2.05445 131.085 1.93361 129.998 2.05445C128.789 2.1753 127.46 2.41699 126.251 2.77952C125.405 3.02121 124.68 3.50459 123.955 3.86713C122.505 4.71304 121.297 5.6798 120.209 6.88825Z" fill="#4A245E"/>
<path d="M28.7293 64.7729C28.0043 65.4979 27.4001 66.4647 26.7958 67.3106C26.5541 67.794 26.3124 68.2774 26.0708 68.7607C25.7082 69.7275 25.3457 70.8151 24.9832 71.9027C24.4998 73.8362 24.1372 75.8906 24.3789 77.945C24.3789 78.7909 24.6206 79.516 24.9832 80.1202C25.5874 81.0869 26.5541 81.812 27.6417 82.1745C28.7293 82.4162 29.9378 82.2954 31.0254 81.6912C31.9922 81.0869 32.8381 80.1202 33.0798 79.0326C33.4423 76.7365 33.684 74.5613 34.4091 72.3861C34.5299 72.0236 34.7716 71.7819 35.0133 71.4193C35.255 71.0568 35.4967 70.8151 35.8592 70.5734L36.4634 70.2109L37.3093 69.9692C38.7595 69.8484 40.0888 69.9692 41.5389 70.09C42.3848 70.2109 43.3516 70.3317 44.1975 70.5734C45.406 70.8151 46.4936 70.6943 47.5812 70.09C48.5479 69.4858 49.273 68.5191 49.6355 67.4314C49.8772 66.3438 49.7564 65.1354 49.1522 64.0478C48.5479 63.081 47.5812 62.2351 46.4936 61.9934C44.4392 61.6309 42.3848 61.3892 40.2096 61.1475C38.397 61.0267 36.7051 61.1475 34.8924 61.3892C33.9257 61.51 32.9589 61.9934 32.113 62.356L31.5088 62.7185C30.4212 63.2019 29.5753 63.9269 28.7293 64.7729Z" fill="#4A245E"/>
<path d="M37.7928 27.9151C40.0888 26.5858 42.7474 25.7399 45.406 25.9816C46.4936 26.1024 47.5812 26.2233 48.6688 26.465C49.7564 26.7067 50.7232 27.19 51.6899 27.5526C52.6567 27.9151 53.3818 29.1236 53.6235 30.0903C53.8651 31.1779 53.7443 32.2655 53.2609 33.1114C52.415 34.6824 50.4815 35.5283 48.6688 35.1658C47.5812 34.9241 46.4936 34.5616 45.406 34.3199C44.9226 34.3199 44.5601 34.3199 44.0767 34.3199L43.4725 34.4407C43.1099 34.6824 42.7474 34.8033 42.3849 35.045C41.9015 35.5283 41.4181 36.0117 40.9347 36.6159L40.693 36.9785C41.1764 38.0661 41.9015 39.1537 42.5057 40.1205C43.835 42.2957 43.1099 45.3168 40.9347 46.5252C38.7595 47.8545 35.8592 47.1295 34.5299 44.9543C34.0466 44.2292 33.5632 43.5041 33.2006 42.6582C32.4756 41.3289 31.7505 39.9996 31.5088 38.5495C31.2671 37.341 31.2671 36.2534 31.5088 34.9241C31.7505 34.4407 31.8713 33.8365 32.113 33.3531C32.2339 32.9906 32.4756 32.7489 32.7173 32.3864C33.9257 30.8154 35.1342 29.3652 36.826 28.2776C37.0677 28.3985 37.4302 28.1568 37.7928 27.9151ZM40.4513 37.7036V37.9452V37.7036Z" fill="#4A245E"/>
<path d="M76.3423 3.50451C75.6172 4.10873 75.013 4.8338 74.4087 5.55887C73.2003 7.00901 72.4752 8.58 71.9918 10.3927C71.6293 11.4803 71.6293 12.8096 71.6293 13.8972C71.6293 14.9848 71.6293 16.0724 71.7502 17.16C71.871 18.6101 71.9918 20.1811 71.9918 21.6313C72.1127 22.7189 72.4752 23.8065 73.3211 24.5315C74.0462 25.2566 75.1338 25.74 76.2214 25.6192C78.3966 25.6192 80.451 23.6856 80.3301 21.3896C80.2093 19.6977 80.0885 18.0059 79.9676 16.3141C79.8468 15.1056 79.8468 13.7763 79.9676 12.5679C80.0885 12.2054 80.0885 11.8428 80.2093 11.4803C80.3301 11.1177 80.5718 10.8761 80.6927 10.5135C81.1761 9.90929 81.7803 9.30507 82.3845 8.82169C82.747 8.58 82.9887 8.45915 83.3513 8.21746L84.0763 7.97577H85.1639C85.5265 8.09662 85.7682 8.09662 86.1307 8.21746C86.7349 8.58 87.46 8.94253 88.0642 9.30507C88.7893 10.2718 89.6352 10.8761 90.602 11.3594C91.2062 11.722 91.9313 11.8428 92.6563 11.8428C93.7439 11.8428 94.9524 11.3594 95.6775 10.5135C97.2485 8.94253 97.2485 6.04225 95.5566 4.47127C94.469 3.62535 93.2606 2.77944 92.0521 2.05437C90.9645 1.3293 89.7561 0.845915 88.4268 0.48338C87.2183 0.120845 85.889 0 84.4389 0C83.7138 0 82.9887 0.24169 82.2637 0.24169C81.0552 0.48338 79.9676 0.96676 78.88 1.57099L78.5175 1.81268C77.7924 2.29606 77.0673 2.90028 76.3423 3.50451Z" fill="#4A245E"/>
<g clip-path="url(#clip1)">
<path d="M103.123 228.4C103.486 228.4 103.969 228.037 104.452 227.794C103.969 227.794 103.607 228.037 103.123 228.4Z" fill="#FDA14E"/>
<path d="M186.337 156.003C186.216 156.124 186.095 156.245 185.974 156.245C186.095 156.245 186.216 156.124 186.337 156.003Z" fill="#FDA14E"/>
<path d="M127.158 212.661L127.037 212.298C128.124 211.451 127.641 212.419 128.486 211.572C128.607 210.845 130.177 210.361 130.298 209.877C130.298 209.877 130.781 209.514 130.902 209.756C130.902 209.392 131.385 209.392 131.626 209.029C131.747 208.908 131.505 209.029 131.385 209.029L131.988 208.424C132.351 208.303 132.472 208.424 132.23 208.666C134.162 207.334 142.979 201.039 144.911 199.586C144.549 199.586 144.066 200.192 143.583 200.07C143.945 199.586 144.428 199.586 144.549 199.223C145.032 199.465 145.757 198.497 146.481 198.618V198.255H146.844C148.897 196.317 147.327 197.77 149.38 196.317C150.467 195.47 150.829 194.744 151.554 194.259C151.433 194.38 151.071 194.38 151.312 194.138C151.554 194.259 152.037 193.412 152.279 193.533C152.52 193.291 153.486 192.564 153.003 192.564C153.245 192.564 154.211 191.959 153.728 192.443C153.969 192.201 154.332 192.08 154.452 191.838L153.969 192.08C154.936 191.354 155.539 191.112 156.023 190.385L155.539 190.506C156.143 190.022 156.626 189.659 156.989 189.78L156.506 190.264C157.472 189.538 158.076 189.054 158.68 188.327L158.438 188.569C159.283 187.601 164.477 183.364 165.081 182.274L164.477 182.395L165.201 181.669C165.081 181.79 165.322 182.637 165.201 182.637C166.892 181.305 175.829 174.526 177.641 173.436C178.366 173.073 178.003 173.678 178.003 173.678C178.728 173.073 178.245 173.194 178.849 172.71C179.09 172.589 178.97 172.952 178.849 172.952C179.09 172.71 179.453 172.589 179.453 172.468C179.09 172.71 178.97 172.347 178.728 172.226L179.573 171.62L179.694 171.862C179.694 171.741 179.694 171.136 180.66 170.531C182.11 169.562 183.68 168.351 185.129 167.383C185.129 167.504 184.888 167.746 184.646 168.109C184.888 167.988 185.129 167.746 185.371 167.625C184.888 167.746 185.854 167.02 185.612 167.141C186.337 165.93 188.028 165.325 188.752 164.356C188.632 163.993 186.458 156.729 186.216 156.366C186.458 156.245 186.699 156.003 186.82 156.003C186.699 156.003 186.095 156.366 185.854 156.608L185.975 156.85C185.371 157.456 185.733 156.85 185.008 157.335C184.888 157.213 185.491 156.729 185.975 156.245C185.491 156.608 184.888 156.85 184.767 157.213C184.284 157.456 184.646 156.971 184.042 157.335C183.68 157.577 183.317 158.182 182.714 158.424C181.506 159.029 181.144 159.998 180.057 160.482L180.177 160.361C179.694 160.482 179.09 161.209 178.366 161.572C178.607 161.451 178.849 161.451 178.487 161.814C177.641 162.298 177.158 162.782 176.554 163.025L176.071 163.509C173.414 165.446 163.148 173.194 160.612 175.131L160.733 175.01C156.868 178.037 148.655 184.211 144.791 187.48C144.066 187.843 143.22 188.448 142.496 188.933C142.858 188.69 142.858 188.932 142.617 189.175C140.563 190.627 142.617 189.417 140.563 190.991C138.39 192.928 129.211 199.344 127.037 200.797C126.071 201.886 124.621 202.734 123.655 203.702L123.776 203.581C123.172 204.066 121.24 205.518 119.186 206.971C117.133 208.303 115.08 209.756 114.355 210.24L114.597 210.119C113.51 211.087 113.51 210.724 112.423 211.33C112.785 211.572 111.819 212.419 111.457 212.782V212.661C110.853 213.146 109.766 214.356 108.8 215.083L108.679 214.84C107.954 215.567 106.384 216.535 105.781 217.02C104.331 217.867 102.157 219.078 100.466 220.53L99.0172 220.894L98.7756 221.015C98.7756 221.015 100.587 228.037 103.848 227.552L103.969 227.794L104.331 227.431C104.935 227.068 105.056 226.705 105.177 226.947L104.331 227.431C104.935 227.068 104.573 227.431 104.452 227.673C104.694 227.552 104.935 227.431 105.177 227.31C105.297 227.189 105.056 227.31 104.935 227.31C105.177 227.068 105.539 226.584 106.022 226.342C106.626 225.978 106.264 226.584 106.988 226.099C110.732 223.678 114.355 221.378 118.099 218.836C118.22 218.836 118.099 218.957 118.099 218.957C119.186 218.109 120.153 217.504 121.119 216.656C121.481 216.535 121.602 216.535 121.723 216.535C121.602 216.535 122.93 215.567 124.38 214.477C125.104 213.993 125.829 213.388 126.312 213.024C126.674 212.903 127.037 212.661 127.158 212.661Z" fill="#FDA14E"/>
<path d="M118.099 239.538C118.462 239.538 118.945 239.053 119.428 238.811C118.945 238.932 118.462 239.174 118.099 239.538Z" fill="#FDA14E"/>
<path d="M199.501 163.146C199.38 163.267 199.26 163.388 199.139 163.388C199.26 163.388 199.38 163.267 199.501 163.146Z" fill="#FDA14E"/>
<path d="M140.684 221.741L140.563 221.378C141.65 220.53 141.167 221.499 142.013 220.652C142.133 219.925 143.704 219.441 143.824 218.957C143.824 218.957 144.307 218.593 144.428 218.836C144.428 218.472 144.911 218.351 145.153 218.109C145.274 217.988 145.032 218.109 144.911 218.109L145.515 217.504C145.877 217.383 145.998 217.383 145.757 217.746C147.568 216.414 156.385 209.877 158.317 208.182C157.955 208.182 157.472 208.787 156.989 208.666C157.351 208.061 157.834 208.182 157.834 207.819C158.317 208.061 159.042 206.971 159.767 207.092V206.729L160.129 206.608C162.182 204.671 160.491 206.124 162.665 204.55C163.873 203.581 164.114 202.855 164.839 202.492C164.718 202.613 164.356 202.613 164.597 202.371C164.839 202.492 165.322 201.644 165.564 201.644C165.805 201.402 166.771 200.676 166.288 200.676C166.53 200.676 167.496 200.07 167.013 200.555C167.255 200.313 167.617 200.192 167.738 199.949L167.255 200.192C168.221 199.465 168.945 199.223 169.308 198.497L168.825 198.618C169.428 198.133 169.912 197.77 170.274 197.891L169.791 198.376C170.757 197.649 171.361 197.165 172.085 196.439L171.844 196.681C172.689 195.591 177.883 191.354 178.607 190.264L178.003 190.385L178.728 189.538C178.607 189.659 178.849 190.506 178.728 190.506C180.54 189.175 189.477 181.911 191.168 180.821C191.892 180.458 191.53 181.063 191.53 181.063C192.255 180.337 191.651 180.579 192.376 180.095C192.617 179.974 192.496 180.337 192.376 180.337C192.617 180.095 192.979 179.974 192.979 179.853C192.496 180.095 192.496 179.732 192.255 179.61L193.1 179.005L193.221 179.247C193.462 179.126 193.342 178.4 194.308 177.916C195.757 176.826 197.327 175.615 198.777 174.526C198.777 174.647 198.535 174.889 198.293 175.252C198.535 175.131 198.777 174.889 199.018 174.768C198.535 174.889 199.501 174.163 199.26 174.284C199.984 173.073 201.675 172.347 202.4 171.378C202.158 171.015 199.743 163.993 199.38 163.63C199.622 163.388 199.984 163.146 200.105 163.146C199.984 163.146 199.38 163.509 199.139 163.751L199.26 163.993C198.656 164.598 199.018 163.993 198.293 164.477C198.173 164.356 198.656 163.751 199.26 163.388C198.777 163.751 198.173 163.993 198.052 164.356C197.569 164.598 197.931 164.114 197.327 164.477C196.965 164.841 196.603 165.446 195.999 165.688C194.791 166.414 194.549 167.262 193.342 167.867L193.462 167.746C192.979 167.867 192.376 168.594 191.651 168.957C191.892 168.836 192.134 168.836 191.772 169.199C190.926 169.683 190.564 170.167 189.839 170.41L189.477 171.015C186.82 172.952 176.916 181.305 174.259 183.242L174.38 183.121C170.395 186.269 162.182 192.564 158.196 195.954C157.472 196.317 156.626 197.044 155.902 197.407C156.385 197.165 156.264 197.407 156.023 197.649C153.969 199.223 156.023 197.891 153.969 199.586C151.795 201.644 142.617 208.424 140.322 209.998C139.356 211.087 137.786 212.056 136.819 213.024L136.94 212.903C136.457 213.388 134.404 214.84 132.351 216.535C130.418 218.109 128.365 219.804 127.761 220.409L128.003 220.288C126.916 221.378 126.916 221.015 125.95 221.741C126.312 221.862 125.467 222.952 125.104 223.315V223.194C124.621 223.678 123.414 225.01 122.568 225.857L122.447 225.615C121.843 226.463 120.273 227.673 119.67 228.158C118.341 229.247 116.046 230.579 114.476 232.274L113.027 232.758L112.906 232.879C112.906 232.879 115.563 239.538 118.824 238.69L118.945 238.811L119.428 238.448C120.032 238.085 120.153 237.722 120.273 237.843L119.307 238.569C119.911 238.206 119.549 238.569 119.428 238.811C119.67 238.69 119.911 238.448 120.153 238.327C120.153 238.206 120.032 238.327 119.911 238.327C120.153 238.085 120.394 237.601 120.877 237.359C121.481 236.874 121.119 237.601 121.723 236.995C125.225 234.211 128.607 231.668 132.109 228.763C132.23 228.763 132.109 228.884 132.109 229.005C133.075 228.036 134.042 227.31 134.887 226.463C135.249 226.342 135.37 226.342 135.491 226.342C135.129 226.342 140.443 221.741 140.684 221.741Z" fill="#FDA14E"/>
<path d="M120.153 254.429C120.515 254.429 121.119 254.065 121.602 253.702C121.119 253.823 120.636 254.065 120.153 254.429Z" fill="#FDA14E"/>
<path d="M206.868 180.821C206.748 180.942 206.627 180.942 206.506 181.063C206.627 181.063 206.748 180.942 206.868 180.821Z" fill="#FDA14E"/>
<path d="M144.67 237.964L144.549 237.601C145.636 236.753 145.153 237.722 146.119 236.874C146.24 236.148 147.81 235.664 148.051 235.179C148.051 235.179 148.535 234.816 148.655 235.058C148.655 234.695 149.138 234.574 149.38 234.332C149.501 234.211 149.259 234.332 149.138 234.332L149.742 233.727C150.105 233.605 150.225 233.727 149.984 233.969C151.916 232.637 161.095 226.221 163.027 224.647C162.665 224.647 162.061 225.252 161.699 225.131C162.182 224.647 162.544 224.647 162.665 224.283C163.148 224.526 163.873 223.557 164.597 223.557V223.194L164.96 223.073C167.134 221.136 165.443 222.589 167.496 221.136C168.704 220.167 169.066 219.441 169.791 219.078C169.67 219.199 169.308 219.199 169.549 218.957C169.791 219.078 170.274 218.23 170.515 218.351C170.757 218.109 171.844 217.383 171.24 217.383C171.482 217.383 172.448 216.777 171.965 217.262C172.327 217.02 172.569 216.898 172.81 216.656L172.448 216.898C173.414 216.172 174.139 215.93 174.622 215.204L174.139 215.325C174.743 214.84 175.226 214.477 175.588 214.598L174.984 215.083C175.95 214.356 176.554 213.872 177.279 213.145L176.916 213.388C177.762 212.298 183.197 208.061 183.921 207.092L183.317 207.213L184.042 206.487C183.921 206.608 184.163 207.455 183.921 207.455C184.888 206.85 187.545 204.671 190.322 202.734C193.1 200.797 195.878 198.86 196.844 198.254C197.569 197.891 197.206 198.497 197.206 198.497C197.931 197.891 197.448 198.012 198.173 197.528C198.414 197.407 198.293 197.77 198.173 197.77C198.414 197.528 198.777 197.407 198.777 197.286C198.293 197.528 198.293 197.165 198.052 197.044L199.018 196.439L199.139 196.681C199.38 196.56 199.38 195.833 200.347 195.349C201.917 194.38 203.487 193.17 205.057 192.201C205.057 192.322 204.815 192.564 204.574 192.928C204.815 192.807 205.057 192.564 205.298 192.443C204.815 192.564 205.902 191.838 205.54 191.959C206.385 190.748 208.076 190.143 208.922 189.175C208.801 188.811 206.868 181.548 206.627 181.063C206.989 180.821 207.231 180.7 207.351 180.579C207.231 180.579 206.627 180.942 206.265 181.184L206.385 181.426C205.661 182.032 206.144 181.426 205.419 181.911C205.298 181.79 205.902 181.305 206.506 180.821C206.023 181.184 205.298 181.426 205.298 181.79C204.694 182.032 205.178 181.548 204.574 181.911C204.211 182.274 203.728 182.879 203.245 183C201.796 183.848 201.434 184.695 200.226 185.301L200.347 185.179C199.864 185.301 199.26 186.027 198.414 186.39C198.656 186.269 198.897 186.269 198.535 186.632C197.69 187.116 197.206 187.601 196.482 187.843L195.999 188.448C193.221 190.385 182.351 198.012 179.815 200.192L179.936 200.07C175.829 203.218 167.375 209.392 163.269 212.661C162.424 213.024 161.578 213.63 160.853 214.114C161.337 213.872 161.216 214.114 160.974 214.356C158.921 215.93 160.974 214.598 158.921 216.172C156.626 218.109 147.206 224.768 144.911 226.221C143.945 227.31 142.375 228.158 141.288 229.247L141.409 229.126C140.322 230.216 133.196 234.937 131.747 236.027L131.988 235.906C130.902 236.995 130.781 236.511 129.815 237.116C130.177 237.358 129.211 238.206 128.848 238.569V238.448C128.244 238.932 127.037 240.143 126.071 240.99L125.95 240.748C125.225 241.475 123.534 242.564 122.93 243.049C121.481 244.017 119.186 245.228 117.496 246.802L115.926 247.165L115.684 247.286C115.684 247.286 117.616 254.308 120.877 253.702L120.998 253.944L121.481 253.581C122.085 253.218 122.206 252.855 122.327 253.097L121.481 253.702C122.085 253.339 121.723 253.702 121.602 253.944C121.843 253.823 122.085 253.581 122.327 253.581C122.447 253.46 122.206 253.581 122.085 253.581C122.327 253.339 122.689 252.855 123.172 252.613C123.776 252.249 123.414 252.855 124.138 252.371C127.882 249.828 131.626 247.407 135.37 244.743C135.491 244.743 135.37 244.865 135.37 244.986C136.457 244.138 137.423 243.412 138.51 242.564C138.873 242.443 138.993 242.443 139.114 242.443C138.993 242.443 140.322 241.354 141.771 240.385C142.496 239.901 143.22 239.296 143.824 238.932C144.307 238.327 144.67 237.964 144.67 237.964Z" fill="#FDA14E"/>
<path d="M124.621 268.714C124.984 268.714 125.467 268.351 125.95 268.109C125.587 268.109 125.104 268.351 124.621 268.714Z" fill="#FDA14E"/>
<path d="M206.748 197.165C206.627 197.286 206.506 197.407 206.385 197.407C206.506 197.407 206.627 197.286 206.748 197.165Z" fill="#FDA14E"/>
<path d="M148.051 252.976L147.931 252.613C149.018 251.886 148.535 252.734 149.38 252.007C149.501 251.281 151.071 250.918 151.192 250.434C151.192 250.434 151.675 250.191 151.795 250.313C151.795 249.949 152.279 249.949 152.52 249.586C152.641 249.465 152.399 249.586 152.279 249.586L152.882 248.981C153.245 248.86 153.366 248.981 153.124 249.223C155.056 248.012 163.994 241.959 165.805 240.506C165.443 240.506 164.96 241.112 164.477 240.99C164.839 240.506 165.322 240.506 165.443 240.143C165.926 240.385 166.651 239.417 167.375 239.538V239.175H167.738C169.912 237.359 168.221 238.69 170.274 237.237C171.361 236.39 171.723 235.664 172.448 235.3C172.327 235.422 171.965 235.422 172.206 235.179C172.448 235.3 172.931 234.453 173.172 234.574C173.414 234.332 174.38 233.606 173.897 233.606C174.139 233.606 175.105 233 174.622 233.484C174.863 233.242 175.226 233.121 175.346 232.879L174.863 233.121C175.829 232.395 176.554 232.153 176.916 231.547L176.433 231.668C177.037 231.184 177.52 230.821 177.883 230.942L177.4 231.426C178.366 230.7 178.97 230.216 179.694 229.489L179.453 229.731C180.298 228.763 185.491 224.647 186.216 223.557L185.854 223.799L186.578 223.073C186.458 223.194 186.699 224.041 186.578 224.041C187.424 223.436 190.202 221.499 192.738 219.32C195.395 217.262 197.931 215.204 198.777 214.719C199.501 214.356 199.139 214.962 199.139 214.962C199.864 214.235 199.26 214.477 199.984 213.993C200.226 213.872 200.105 214.235 199.984 214.235C200.226 213.993 200.588 213.872 200.588 213.751C200.226 213.993 200.105 213.63 199.864 213.509L200.709 212.903L200.83 213.146C201.071 213.024 200.95 212.298 201.917 211.814C203.366 210.845 204.815 209.514 206.265 208.545C206.265 208.666 206.023 208.908 205.781 209.271C206.023 209.15 206.265 208.908 206.506 208.787C206.023 208.908 206.989 208.182 206.748 208.303C207.472 207.092 209.042 206.487 209.767 205.518C209.525 205.155 207.11 198.133 206.748 197.77C206.989 197.528 207.352 197.407 207.472 197.286C207.352 197.286 206.748 197.649 206.506 197.891L206.627 198.133C206.023 198.739 206.385 198.133 205.661 198.618C205.54 198.497 206.023 198.012 206.627 197.528C206.144 197.891 205.54 198.133 205.54 198.497C205.057 198.739 205.419 198.255 204.815 198.618C204.453 198.981 204.091 199.586 203.608 199.828C202.4 200.434 202.158 201.402 201.071 202.008V201.886C200.588 202.008 200.105 202.734 199.38 203.097C199.622 202.976 199.864 202.976 199.501 203.339C198.656 203.824 198.293 204.308 197.69 204.55L197.327 205.155C194.791 207.092 185.129 215.083 182.351 216.899L182.472 216.777C178.607 219.683 170.395 225.615 166.53 228.884C165.805 229.126 164.96 229.853 164.235 230.216C164.718 229.974 164.597 230.216 164.356 230.458C162.303 231.911 164.356 230.7 162.303 232.153C160.008 233.969 150.829 240.264 148.655 241.596C147.689 242.685 146.119 243.412 145.153 244.38L145.274 244.259C144.187 245.228 137.303 249.707 135.974 250.797L136.216 250.676C135.129 251.644 135.129 251.281 134.042 251.886C134.404 252.128 133.438 252.976 133.075 253.339V253.218C132.472 253.702 131.385 254.913 130.418 255.639L129.815 255.276C129.09 256.003 127.52 257.092 126.916 257.455C125.467 258.303 123.293 259.513 121.602 261.087L120.153 261.45L120.032 261.572C120.032 261.572 122.206 268.351 125.346 267.867L125.467 268.109L125.95 267.746C126.554 267.383 126.674 267.019 126.795 267.262L126.071 267.746C126.674 267.383 126.312 267.746 126.191 267.988C126.433 267.867 126.674 267.746 126.916 267.625C127.037 267.504 126.795 267.625 126.674 267.625C126.916 267.383 127.278 266.898 127.641 266.656C128.244 266.293 127.882 266.898 128.607 266.414C132.23 263.993 135.853 261.693 139.356 259.15C139.476 259.15 139.356 259.271 139.356 259.271C140.443 258.424 141.409 257.819 142.254 256.971C142.617 256.85 142.737 256.85 142.858 256.85C142.737 256.85 144.066 255.881 145.394 254.792C146.119 254.308 146.844 253.823 147.327 253.46C147.689 253.218 148.051 252.976 148.051 252.976Z" fill="#FDA14E"/>
<path d="M137.665 283C138.027 282.879 138.631 282.516 139.114 282.153C138.51 282.274 138.148 282.516 137.665 283Z" fill="#FDA14E"/>
<path d="M226.071 204.913C225.951 205.034 225.83 205.155 225.709 205.155C225.709 205.155 225.951 205.034 226.071 204.913Z" fill="#FDA14E"/>
<path d="M161.82 264.477L161.699 264.114C162.786 263.266 162.303 264.235 163.269 263.266C163.39 262.54 165.081 261.935 165.201 261.45C165.201 261.45 165.684 261.087 165.805 261.208C165.805 260.845 166.288 260.724 166.53 260.482C166.651 260.361 166.409 260.482 166.288 260.482L167.013 259.877C167.375 259.755 167.496 259.755 167.255 260.119C169.187 258.787 178.607 251.886 180.54 250.191C180.177 250.191 179.573 250.797 179.211 250.797C179.694 250.191 180.057 250.191 180.177 249.949C180.66 250.191 181.506 249.102 182.11 249.223V248.86L182.472 248.739C184.767 246.68 182.955 248.133 185.129 246.68C186.337 245.712 186.699 244.986 187.545 244.622C187.424 244.743 187.061 244.743 187.303 244.501C187.545 244.622 188.028 243.775 188.39 243.775C188.632 243.533 189.718 242.806 189.235 242.806C189.477 242.806 190.443 242.201 189.96 242.685C190.322 242.443 190.564 242.322 190.805 242.08L190.322 242.322C191.289 241.475 192.013 241.354 192.617 240.627L192.013 240.748C192.617 240.264 193.1 239.901 193.583 239.901L192.979 240.506C194.066 239.78 194.67 239.295 195.395 238.448L195.033 238.69C195.999 237.601 201.554 233.242 202.4 232.153L201.796 232.274L202.521 231.426C202.4 231.547 202.521 232.395 202.4 232.395C204.211 230.942 213.994 223.799 215.806 222.71C216.651 222.346 216.168 222.952 216.168 222.952C217.013 222.225 216.41 222.467 217.134 221.983C217.376 221.862 217.255 222.225 217.134 222.225C217.497 221.983 217.738 221.862 217.738 221.741C217.255 221.983 217.255 221.62 217.013 221.499L217.98 220.894L218.1 221.136C218.342 221.015 218.342 220.288 219.308 219.804C220.878 218.836 222.569 217.504 224.139 216.414C224.139 216.535 223.898 216.777 223.656 217.141C223.898 217.02 224.139 216.777 224.381 216.656C223.898 216.777 224.985 216.051 224.622 216.172C225.468 214.961 227.279 214.235 228.125 213.267C228.004 212.903 226.071 205.639 225.709 205.155C226.071 204.913 226.313 204.671 226.434 204.671C226.313 204.671 225.588 205.034 225.347 205.276L225.468 205.518C224.743 206.124 225.226 205.518 224.501 206.003C224.381 205.882 224.985 205.276 225.588 204.913C224.985 205.276 224.381 205.518 224.26 205.882C223.656 206.124 224.139 205.639 223.535 206.003C223.173 206.366 222.69 206.971 222.086 207.213C220.757 207.819 220.395 208.787 219.187 209.392L219.308 209.271C218.825 209.392 218.221 210.119 217.376 210.482C217.617 210.361 217.859 210.361 217.497 210.724C216.651 211.208 216.168 211.693 215.443 211.935L214.96 212.54C212.062 214.477 200.95 222.589 198.293 224.768L198.414 224.647C194.187 227.915 185.371 234.332 181.023 237.843C180.057 238.327 179.211 239.053 178.487 239.538C178.97 239.296 178.849 239.538 178.607 239.78C176.433 241.354 178.607 240.022 176.433 241.717C174.018 243.775 164.356 250.918 161.94 252.492C160.974 253.702 159.283 254.55 158.196 255.639L158.317 255.518C157.713 256.124 155.539 257.576 153.486 259.271C151.433 260.966 149.259 262.54 148.535 263.266L148.776 263.145C147.689 264.356 147.568 263.872 146.602 264.598C146.964 264.719 145.998 265.809 145.636 266.172V266.051C145.032 266.535 143.824 267.988 142.858 268.835L142.617 268.593C141.892 269.441 140.201 270.651 139.718 271.136C138.269 272.225 135.853 273.678 134.162 275.373L132.592 275.857L132.472 276.099C132.472 276.099 134.887 282.879 138.269 282.031L138.39 282.274L138.873 281.91C139.476 281.547 139.597 281.184 139.718 281.305L138.873 281.91C139.476 281.426 139.114 281.91 138.993 282.153C139.235 281.91 139.476 281.789 139.718 281.668C139.839 281.547 139.597 281.668 139.476 281.668C139.718 281.305 140.08 280.821 140.443 280.579C141.047 280.094 140.684 280.821 141.409 280.215C145.153 277.31 148.897 274.646 152.52 271.62C152.641 271.62 152.52 271.741 152.52 271.862C153.607 270.893 154.573 270.167 155.539 269.199C155.902 269.078 156.023 269.078 156.143 269.078C155.902 269.199 161.699 264.477 161.82 264.477Z" fill="#FDA14E"/>
</g>
<path d="M1285.2 529.473C1313.95 535.076 1363.13 540.032 1366.42 543.479C1369.71 546.927 1349.62 558.455 1340.79 563.196C1328.5 569.876 1316.03 574.617 1304.42 581.62C1303.04 582.374 1301.48 584.098 1303.21 584.852C1303.38 585.175 1303.9 585.391 1304.77 585.498C1324.17 587.869 1382.35 590.239 1387.03 584.098C1399.67 567.29 1416.82 539.924 1417.68 532.813C1418.38 527.749 1367.81 519.561 1345.29 517.622C1338.19 516.975 1382.35 484.545 1388.93 475.064C1390.32 473.017 1385.99 473.017 1384.43 473.771C1353.09 488.208 1314.81 511.588 1287.11 525.595C1285.55 526.456 1282.26 528.934 1285.2 529.473Z" fill="#99DDC6"/>
<path d="M1396.38 555.654C1397.07 555.008 1395.86 553.176 1394.82 554.038C1394.3 554.577 1395.52 556.516 1396.38 555.654Z" fill="#FFFBE9"/>
<path d="M1393.96 561.257C1394.3 560.826 1394.3 560.287 1393.96 559.856C1393.78 559.533 1393.26 559.102 1392.57 559.317C1392.74 559.21 1392.57 559.317 1392.57 559.317H1392.4C1392.23 559.317 1392.23 559.425 1392.23 559.533C1391.71 559.964 1391.71 560.718 1392.23 561.149C1392.57 561.688 1393.61 561.795 1393.96 561.257Z" fill="#FFFBE9"/>
<path d="M1386.86 559.425C1386.86 559.533 1386.86 559.533 1386.86 559.425C1387.55 558.886 1387.38 558.024 1386.86 557.486C1386.34 556.839 1385.12 556.732 1384.61 557.486C1384.43 557.701 1384.43 558.024 1384.43 558.348C1384.43 559.102 1385.82 560.718 1386.86 559.425Z" fill="#FFFBE9"/>
<path d="M1392.05 556.408C1392.05 556.085 1391.71 554.9 1390.84 555.331C1390.15 555.654 1390.32 555.977 1390.49 556.408C1390.84 556.947 1391.88 557.162 1392.05 556.408Z" fill="#FFFBE9"/>
<path d="M1388.59 545.203C1388.76 545.203 1388.76 545.203 1388.93 545.203C1390.15 544.988 1389.8 543.803 1389.45 543.372C1388.76 542.725 1387.72 542.833 1387.55 543.587C1387.55 543.695 1387.55 543.803 1387.38 543.91C1387.38 544.234 1387.72 545.419 1388.59 545.203Z" fill="#FFFBE9"/>
<path d="M1403.83 535.938C1404.52 535.399 1403.31 533.567 1402.44 534.429C1401.75 534.968 1402.96 536.692 1403.83 535.938Z" fill="#FFFBE9"/>
<path d="M1397.42 533.136C1398.11 532.598 1396.9 530.766 1396.04 531.628C1395.34 532.167 1396.38 533.89 1397.42 533.136Z" fill="#FFFBE9"/>
<path d="M1402.79 532.813H1402.96C1403.14 532.921 1403.48 532.813 1403.66 532.598C1404.17 532.167 1404.17 531.736 1403.83 531.197C1403.66 530.981 1403.31 530.658 1402.96 530.658H1402.79C1402.62 530.658 1402.44 530.766 1402.27 530.874C1402.1 531.089 1401.92 531.305 1401.92 531.412V531.52C1401.92 531.628 1401.92 531.736 1401.92 531.843C1402.1 532.274 1402.27 532.813 1402.79 532.813Z" fill="#FFFBE9"/>
<path d="M1334.9 575.155C1335.42 574.94 1335.6 574.293 1335.42 573.97C1335.25 573.539 1334.9 572.785 1333.86 572.893C1332.82 573 1333 574.078 1333.17 574.509C1333.52 574.832 1334.21 575.479 1334.9 575.155Z" fill="#FFFBE9"/>
<path d="M1326.42 578.818C1326.76 578.387 1326.76 577.849 1326.59 577.418C1326.42 577.095 1325.9 576.556 1325.2 576.664C1324.86 576.771 1324.69 576.771 1324.34 576.987C1323.3 577.418 1323.65 578.818 1324.69 579.142C1325.38 579.357 1326.07 579.357 1326.42 578.818Z" fill="#FFFBE9"/>
<path d="M1334.56 580.111C1335.08 579.68 1334.9 578.926 1334.56 578.495C1334.21 578.172 1333.52 577.849 1333 578.28C1332.48 578.711 1332.65 579.465 1333 579.896C1333.34 580.219 1334.04 580.542 1334.56 580.111Z" fill="#FFFBE9"/>
<path d="M1347.54 577.31C1348.06 576.771 1347.2 575.263 1346.33 576.017C1345.64 576.448 1346.68 577.956 1347.54 577.31Z" fill="#FFFBE9"/>
<path d="M1346.51 570.199C1347.2 570.091 1347.37 569.768 1347.54 569.445C1347.89 568.906 1347.72 568.044 1347.03 567.613C1346.51 567.182 1345.47 567.29 1345.29 567.829C1344.95 568.368 1344.95 568.906 1345.29 569.553C1345.47 569.876 1345.99 570.307 1346.51 570.199Z" fill="#FFFBE9"/>
<path d="M1342.18 575.694C1342.35 575.694 1342.35 575.694 1342.18 575.694C1344.08 575.909 1343.73 573.216 1341.83 573.108C1341.66 573.108 1341.48 573.216 1341.31 573.216C1340.62 573.431 1340.62 573.97 1340.79 574.401C1340.79 574.401 1340.79 574.509 1340.96 574.724C1341.14 574.94 1341.14 575.047 1341.48 575.263C1341.66 575.586 1342 575.694 1342.18 575.694Z" fill="#FFFBE9"/>
<path d="M1354.99 574.617C1355.16 574.401 1355.16 574.293 1355.16 574.078C1355.16 573.755 1354.47 572.569 1353.61 573.216C1353.09 573.647 1353.43 574.617 1354.3 574.724C1354.65 575.047 1354.99 574.832 1354.99 574.617Z" fill="#FFFBE9"/>
<path d="M1344.77 532.921C1345.47 532.382 1345.29 531.413 1344.77 530.874C1344.43 530.443 1343.39 530.012 1342.7 530.551C1342 531.089 1342.18 532.059 1342.7 532.598C1343.04 533.029 1344.08 533.46 1344.77 532.921Z" fill="#FFFBE9"/>
<path d="M1333.52 526.78C1334.04 526.133 1333.69 525.271 1332.82 524.948C1331.96 524.517 1331.27 525.379 1331.44 525.81C1331.44 525.81 1331.44 525.81 1331.44 525.918C1331.44 526.564 1332.65 527.965 1333.52 526.78Z" fill="#FFFBE9"/>
<path d="M1336.46 533.46C1336.63 532.921 1336.46 532.274 1335.77 531.951C1335.25 531.628 1334.38 531.628 1334.04 532.059C1333.17 532.274 1333.52 533.567 1333.86 533.783C1334.73 534.645 1336.29 534.645 1336.46 533.46Z" fill="#FFFBE9"/>
<path d="M1339.06 528.934C1339.23 529.258 1339.58 529.581 1340.1 529.473H1340.27C1341.31 529.258 1340.96 528.073 1340.27 527.749L1340.1 527.642C1339.23 527.318 1338.89 527.965 1338.89 528.396C1338.89 528.503 1338.89 528.611 1338.89 528.719C1338.89 528.719 1338.89 528.827 1339.06 528.934Z" fill="#FFFBE9"/>
<path d="M1306.5 529.581C1307.71 529.796 1307.89 528.611 1307.71 528.18C1307.54 527.749 1307.19 527.211 1306.5 527.103C1306.33 527.103 1306.15 527.103 1305.98 527.103C1304.77 527.211 1305.12 529.365 1306.5 529.581Z" fill="#FFFBE9"/>
<path d="M1298.88 525.81C1299.05 525.81 1299.05 525.81 1299.05 525.702C1300.27 524.948 1298.71 522.793 1297.67 523.763C1296.46 524.194 1297.32 526.241 1298.88 525.81Z" fill="#FFFBE9"/>
<path d="M1310.48 522.901C1311.52 522.686 1311 522.039 1310.31 521.716C1309.79 521.393 1309.45 522.362 1310.14 522.578C1309.96 522.793 1310.14 523.009 1310.48 522.901Z" fill="#FFFBE9"/>
<path d="M1313.08 527.749C1313.26 527.857 1313.6 527.965 1313.95 527.857C1314.47 527.642 1314.47 527.318 1314.47 526.995C1314.47 526.456 1314.12 526.025 1313.43 525.81C1313.26 525.702 1312.91 525.81 1312.74 525.81C1311.87 525.702 1311.87 526.672 1312.22 526.995C1312.22 526.78 1312.22 526.887 1312.39 527.103C1312.56 527.211 1312.56 527.318 1312.74 527.534C1312.74 527.534 1313.77 528.18 1313.08 527.749Z" fill="#FFFBE9"/>
<path d="M1361.23 491.548C1361.75 491.656 1362.09 491.333 1362.09 491.01C1362.09 490.902 1362.09 490.794 1362.09 490.686C1362.09 490.579 1362.09 490.579 1362.09 490.471C1362.09 490.363 1362.09 490.256 1361.92 490.148C1361.75 489.932 1361.57 489.717 1361.23 489.609C1360.88 489.501 1360.53 489.394 1360.19 489.717C1359.84 490.148 1360.19 491.333 1361.23 491.548Z" fill="#FFFBE9"/>
<path d="M1355.68 496.612C1355.68 496.612 1355.68 496.505 1355.86 496.505C1356.2 495.966 1355.68 493.919 1354.13 494.565C1354.13 494.565 1353.95 494.565 1353.95 494.673C1353.09 495.104 1353.26 496.181 1353.78 496.612C1354.13 497.151 1355.16 497.366 1355.68 496.612Z" fill="#FFFBE9"/>
<path d="M1359.15 496.504C1359.32 496.181 1358.97 494.996 1358.11 495.427C1357.59 495.75 1357.07 496.289 1357.42 496.72C1357.59 496.828 1357.59 496.935 1357.76 497.043C1358.63 497.474 1358.97 496.72 1359.15 496.504Z" fill="#FFFBE9"/>
<path d="M1351.35 503.077C1351.53 502.753 1351.7 502.538 1351.7 502.215C1351.7 502.107 1351.7 502.107 1351.7 502.107C1351.7 501.891 1351.87 501.676 1351.87 501.461C1352.05 501.245 1351.7 500.599 1351.18 500.814C1350.84 500.922 1350.49 500.814 1349.97 500.706C1348.41 500.275 1348.41 502.322 1348.76 502.753C1349.1 503.4 1350.66 504.046 1351.35 503.077Z" fill="#FFFBE9"/>
<path d="M1343.04 499.844C1343.22 499.844 1343.39 499.844 1343.39 499.844C1344.25 499.844 1344.25 498.982 1343.91 498.659C1343.73 498.552 1343.73 498.444 1343.56 498.336C1342.18 497.151 1341.48 499.737 1343.04 499.844Z" fill="#FFFBE9"/>
<path d="M1339.23 503.831C1339.92 503.292 1339.92 502.322 1338.89 501.999C1338.19 501.676 1338.02 502.322 1338.19 502.753C1338.19 502.753 1338.19 502.753 1338.19 502.861C1337.85 503.184 1338.54 504.37 1339.23 503.831Z" fill="#FFFBE9"/>
<path d="M1373.52 583.344L1373.7 583.236C1374.56 582.805 1374.39 581.835 1373.87 581.297C1373.35 580.758 1372.31 580.542 1371.96 581.297C1371.96 581.404 1371.96 581.404 1371.79 581.512C1371.62 581.943 1372.14 583.99 1373.52 583.344Z" fill="#FFFBE9"/>
<path d="M1268.68 418.716C1280.23 438.766 1294.7 453.483 1308.48 464.36C1339.39 488.839 1385.26 516.372 1405.4 453.209C1415.97 420.308 1409.89 362.466 1403.81 324.986C1395.92 275.001 1388.7 228.534 1373.1 184.467C1357.69 141.036 1329.18 116.426 1304.49 111.644C1286.14 108.129 1269.28 128.772 1256.94 152.721C1239.81 185.984 1236.5 236.909 1239.95 284.876C1241.9 311.595 1245.04 339.54 1249.67 365.142C1253.56 386.259 1260.32 403.986 1268.68 418.716Z" fill="#99DDC6" fill-opacity="0.1"/>
<path d="M1236.01 495.726C1239.8 479.836 1243.94 463.707 1251.88 449.358C1259.82 435.009 1271.91 422.32 1287.31 416.984C1302.71 411.647 1321.67 414.73 1332.45 427.064C1340.04 435.839 1343.35 448.41 1352.83 454.932C1359.11 459.201 1367.53 460.15 1374.64 457.304C1383.64 453.627 1389.8 444.378 1399.16 441.413C1411.84 437.381 1425.58 447.224 1430.8 459.438C1436.01 471.772 1434.83 485.646 1433.52 498.928C1398.21 496.912 1363.02 494.896 1327.71 492.88C1296.55 491.101 1264.92 489.441 1234.58 496.675" fill="#BFC8AD"/>
<path d="M1247.03 496.912C1250.82 477.938 1257.1 457.185 1269.18 441.65C1280.56 427.182 1304.37 417.339 1318.95 433.349C1327.71 442.954 1328.54 459.32 1341.1 465.605C1355.8 473.076 1372.15 466.316 1385.65 460.031C1397.38 454.576 1409.83 454.339 1416.93 466.672C1423.21 477.582 1421.08 490.508 1418.95 502.249C1418.83 503.079 1420.61 502.842 1420.73 502.13C1423.57 486.476 1425.82 460.743 1405.56 455.406C1397.74 453.39 1390.16 456.592 1383.28 459.913C1371.55 465.486 1358.28 470.23 1345.25 465.723C1327.71 459.675 1329.61 435.365 1313.61 427.064C1300.58 420.304 1284.59 424.929 1274.16 434.297C1257.1 449.714 1249.63 475.448 1245.25 497.031C1245.13 497.861 1246.91 497.624 1247.03 496.912Z" fill="#F5F5F5"/>
<path d="M1415.99 502.249C1418.95 490.627 1419.66 469.4 1406.15 463.352C1400.35 460.743 1394.42 462.996 1389.21 465.842C1380.09 470.704 1371.44 474.855 1361.01 475.922C1351.06 476.871 1339.44 475.803 1330.56 470.586C1322.38 465.723 1318.95 456.711 1313.5 449.358C1305.56 438.448 1293 434.89 1281.86 443.903C1274.87 449.595 1271.2 458.371 1268 466.435C1263.85 476.752 1260.65 487.307 1258.28 498.098C1258.04 498.928 1259.82 498.81 1260.06 497.98C1262.55 486.595 1265.98 475.329 1270.49 464.538C1274.87 454.102 1281.27 441.057 1294.06 439.752C1306.27 438.567 1312.43 450.663 1317.88 459.201C1322.15 465.842 1327 471.06 1334.47 474.025C1349.87 479.954 1368.36 478.175 1382.93 470.823C1387.55 468.451 1391.93 465.012 1397.15 463.945C1403.9 462.522 1409 466.079 1412.19 471.653C1417.29 480.784 1416.82 492.643 1414.33 502.486C1413.97 503.197 1415.75 503.079 1415.99 502.249Z" fill="#F5F5F5"/>
<path d="M1267.52 496.912C1269.3 487.544 1272.38 478.531 1276.88 470.111C1281.03 462.403 1293.23 442.717 1301.88 456.355C1305.79 462.522 1307.33 469.044 1312.67 474.38C1316.93 478.65 1322.26 481.852 1327.83 484.105C1341.34 489.56 1356.74 489.56 1370.73 485.884C1374.16 484.935 1377.48 483.868 1380.8 482.563C1385.42 480.666 1394.19 474.499 1398.92 475.922C1409.83 479.124 1408.05 495.015 1406.63 503.316C1406.51 504.146 1408.29 503.79 1408.4 503.197C1409.83 495.133 1411.13 483.749 1404.49 477.582C1399.52 472.957 1394.54 474.262 1389.21 477.227C1368.95 488.374 1342.17 492.169 1321.55 479.361C1317.52 476.871 1313.97 473.787 1311.13 469.993C1308.16 466.079 1306.74 461.454 1304.37 457.304C1301.65 452.204 1297.15 448.765 1291.34 451.018C1284.35 453.509 1279.61 462.166 1276.17 468.214C1271.08 477.227 1267.64 486.951 1265.75 497.149C1265.63 497.861 1267.29 497.624 1267.52 496.912Z" fill="#F5F5F5"/>
<path d="M1400.47 504.739C1401.65 500.233 1403.19 493.473 1399.04 489.915C1395.49 486.832 1389.92 488.255 1385.89 489.323C1376.53 491.813 1368.12 495.845 1358.28 496.556C1349.63 497.031 1340.87 495.845 1332.69 493.117C1324.99 490.508 1317.88 486.358 1311.72 481.14C1307.22 477.345 1302.83 472.72 1296.43 473.194C1283.87 473.787 1280.32 487.307 1279.61 497.742C1279.61 497.98 1281.27 497.861 1281.27 497.268C1281.74 490.627 1282.57 482.444 1287.9 477.582C1289.44 475.922 1291.46 475.21 1294.06 475.566C1297.14 473.55 1300.11 473.55 1302.83 475.685C1303.9 476.278 1304.85 477.108 1305.79 477.819C1308.16 479.717 1310.42 481.97 1312.79 483.867C1321.43 490.508 1331.86 494.778 1342.64 496.556C1351.53 497.98 1360.77 497.505 1369.54 495.252C1372.15 494.54 1374.75 493.71 1377.36 492.762C1379.02 492.169 1380.68 491.576 1382.22 490.983C1385.65 489.797 1391.22 488.137 1394.66 489.085C1401.65 490.864 1399.87 500.114 1398.57 505.095C1398.57 505.451 1400.35 505.213 1400.47 504.739Z" fill="#F5F5F5"/>
<path d="M1327.12 402.918C1327.12 431.275 1393.33 431.275 1393.33 402.918C1393.33 374.561 1378.52 313.177 1360.22 313.177C1341.93 313.177 1327.12 374.585 1327.12 402.918Z" fill="#FFD942"/>
<path d="M1360.22 465.367C1360.02 465.367 1359.82 465.327 1359.64 465.249C1359.45 465.17 1359.28 465.056 1359.14 464.912C1359 464.768 1358.89 464.597 1358.81 464.409C1358.74 464.221 1358.7 464.021 1358.7 463.818V363.987C1358.7 363.581 1358.86 363.191 1359.15 362.901C1359.43 362.611 1359.82 362.445 1360.22 362.439C1360.63 362.439 1361.03 362.602 1361.32 362.893C1361.61 363.183 1361.77 363.577 1361.77 363.987V463.818C1361.77 464.229 1361.61 464.623 1361.32 464.913C1361.03 465.204 1360.63 465.367 1360.22 465.367V465.367Z" fill="white"/>
<path d="M1360.66 405.459C1360.25 405.453 1359.86 405.288 1359.57 404.999C1359.43 404.857 1359.31 404.688 1359.23 404.501C1359.16 404.314 1359.11 404.113 1359.11 403.91C1359.11 403.707 1359.16 403.507 1359.23 403.32C1359.31 403.133 1359.43 402.963 1359.57 402.821L1372.62 389.756C1372.76 389.587 1372.93 389.448 1373.12 389.35C1373.31 389.251 1373.52 389.194 1373.74 389.182C1373.96 389.171 1374.17 389.205 1374.38 389.283C1374.58 389.36 1374.76 389.48 1374.92 389.634C1375.07 389.787 1375.19 389.971 1375.27 390.174C1375.34 390.377 1375.38 390.594 1375.37 390.811C1375.36 391.028 1375.3 391.24 1375.2 391.433C1375.1 391.626 1374.96 391.797 1374.79 391.933L1361.75 405.12C1361.44 405.365 1361.05 405.486 1360.66 405.459V405.459Z" fill="white"/>
<path d="M1360.22 423.073C1359.82 423.071 1359.43 422.916 1359.14 422.638L1346.11 409.572C1345.97 409.43 1345.85 409.261 1345.78 409.074C1345.7 408.887 1345.66 408.686 1345.66 408.483C1345.66 408.28 1345.7 408.08 1345.78 407.893C1345.85 407.706 1345.97 407.536 1346.11 407.394C1346.41 407.113 1346.8 406.957 1347.2 406.957C1347.61 406.957 1348 407.113 1348.29 407.394L1361.31 420.46C1361.46 420.602 1361.57 420.771 1361.65 420.958C1361.73 421.145 1361.77 421.346 1361.77 421.549C1361.77 421.752 1361.73 421.952 1361.65 422.139C1361.57 422.326 1361.46 422.496 1361.31 422.638C1361.17 422.778 1361 422.889 1360.81 422.964C1360.62 423.039 1360.43 423.076 1360.22 423.073V423.073Z" fill="white"/>
<path d="M1361.75 424.186H1358.7V463.818H1361.75V424.186Z" fill="#723891"/>
<path d="M1337.29 494.692H1383.61L1393.76 439.792H1327.12L1337.29 494.692Z" fill="#4A245E"/>
<defs>
<clipPath id="clip0">
<rect width="237.532" height="205.391" fill="white" transform="translate(0 44.6843)"/>
</clipPath>
<clipPath id="clip1">
<rect width="129.349" height="126.997" fill="white" transform="translate(98.7756 156.003)"/>
</clipPath>
</defs>
</svg>
