<svg width="135" height="31" viewBox="0 0 135 31" fill="none" xmlns="http://www.w3.org/2000/svg">
<path d="M0.706719 30V24.24H5.10672V30H0.706719ZM22.3711 28.92C21.6511 29.24 20.7711 29.56 19.7311 29.88C18.6911 30.2 17.5978 30.36 16.4511 30.36C15.7044 30.36 14.9978 30.2667 14.3311 30.08C13.6911 29.8933 13.1178 29.6 12.6111 29.2C12.1311 28.7733 11.7444 28.24 11.4511 27.6C11.1578 26.9333 11.0111 26.1333 11.0111 25.2V13.16H8.25109V9.04H11.0111V2.24H16.3711V9.04H20.7711V13.16H16.3711V23.4C16.3711 24.1467 16.5578 24.68 16.9311 25C17.3311 25.2933 17.8111 25.44 18.3711 25.44C18.9311 25.44 19.4778 25.3467 20.0111 25.16C20.5444 24.9733 20.9711 24.8133 21.2911 24.68L22.3711 28.92ZM34.3348 30.4C32.6282 30.4 31.0948 30.1067 29.7348 29.52C28.3748 28.9333 27.2148 28.1467 26.2548 27.16C25.3215 26.1467 24.6015 24.9867 24.0948 23.68C23.5882 22.3733 23.3348 21 23.3348 19.56C23.3348 18.0933 23.5882 16.7067 24.0948 15.4C24.6015 14.0933 25.3215 12.9467 26.2548 11.96C27.2148 10.9467 28.3748 10.1467 29.7348 9.56C31.0948 8.97333 32.6282 8.68 34.3348 8.68C36.0415 8.68 37.5615 8.97333 38.8948 9.56C40.2548 10.1467 41.4015 10.9467 42.3348 11.96C43.2948 12.9467 44.0282 14.0933 44.5348 15.4C45.0415 16.7067 45.2948 18.0933 45.2948 19.56C45.2948 21 45.0415 22.3733 44.5348 23.68C44.0282 24.9867 43.3082 26.1467 42.3748 27.16C41.4415 28.1467 40.2948 28.9333 38.9348 29.52C37.5748 30.1067 36.0415 30.4 34.3348 30.4ZM28.8548 19.56C28.8548 20.4933 28.9882 21.3467 29.2548 22.12C29.5482 22.8667 29.9348 23.52 30.4148 24.08C30.9215 24.64 31.5082 25.08 32.1748 25.4C32.8415 25.6933 33.5615 25.84 34.3348 25.84C35.1082 25.84 35.8282 25.6933 36.4948 25.4C37.1615 25.08 37.7348 24.64 38.2148 24.08C38.7215 23.52 39.1082 22.8533 39.3748 22.08C39.6682 21.3067 39.8148 20.4533 39.8148 19.52C39.8148 18.6133 39.6682 17.7733 39.3748 17C39.1082 16.2267 38.7215 15.56 38.2148 15C37.7348 14.44 37.1615 14.0133 36.4948 13.72C35.8282 13.4 35.1082 13.24 34.3348 13.24C33.5615 13.24 32.8415 13.4 32.1748 13.72C31.5082 14.04 30.9215 14.48 30.4148 15.04C29.9348 15.6 29.5482 16.2667 29.2548 17.04C28.9882 17.8133 28.8548 18.6533 28.8548 19.56Z" fill="#524055"/>
<path d="M61.4727 28.92C60.7527 29.24 59.8727 29.56 58.8327 29.88C57.7927 30.2 56.6993 30.36 55.5527 30.36C54.806 30.36 54.0993 30.2667 53.4327 30.08C52.7927 29.8933 52.2193 29.6 51.7127 29.2C51.2327 28.7733 50.846 28.24 50.5527 27.6C50.2593 26.9333 50.1127 26.1333 50.1127 25.2V13.16H47.3527V9.04H50.1127V2.24H55.4727V9.04H59.8727V13.16H55.4727V23.4C55.4727 24.1467 55.6593 24.68 56.0327 25C56.4327 25.2933 56.9127 25.44 57.4727 25.44C58.0327 25.44 58.5793 25.3467 59.1127 25.16C59.646 24.9733 60.0727 24.8133 60.3927 24.68L61.4727 28.92ZM73.4364 30.4C71.7297 30.4 70.1964 30.1067 68.8364 29.52C67.4764 28.9333 66.3164 28.1467 65.3564 27.16C64.4231 26.1467 63.7031 24.9867 63.1964 23.68C62.6897 22.3733 62.4364 21 62.4364 19.56C62.4364 18.0933 62.6897 16.7067 63.1964 15.4C63.7031 14.0933 64.4231 12.9467 65.3564 11.96C66.3164 10.9467 67.4764 10.1467 68.8364 9.56C70.1964 8.97333 71.7297 8.68 73.4364 8.68C75.1431 8.68 76.6631 8.97333 77.9964 9.56C79.3564 10.1467 80.5031 10.9467 81.4364 11.96C82.3964 12.9467 83.1297 14.0933 83.6364 15.4C84.1431 16.7067 84.3964 18.0933 84.3964 19.56C84.3964 21 84.1431 22.3733 83.6364 23.68C83.1297 24.9867 82.4097 26.1467 81.4764 27.16C80.5431 28.1467 79.3964 28.9333 78.0364 29.52C76.6764 30.1067 75.1431 30.4 73.4364 30.4ZM67.9564 19.56C67.9564 20.4933 68.0897 21.3467 68.3564 22.12C68.6497 22.8667 69.0364 23.52 69.5164 24.08C70.0231 24.64 70.6097 25.08 71.2764 25.4C71.9431 25.6933 72.6631 25.84 73.4364 25.84C74.2097 25.84 74.9297 25.6933 75.5964 25.4C76.2631 25.08 76.8364 24.64 77.3164 24.08C77.8231 23.52 78.2097 22.8533 78.4764 22.08C78.7697 21.3067 78.9164 20.4533 78.9164 19.52C78.9164 18.6133 78.7697 17.7733 78.4764 17C78.2097 16.2267 77.8231 15.56 77.3164 15C76.8364 14.44 76.2631 14.0133 75.5964 13.72C74.9297 13.4 74.2097 13.24 73.4364 13.24C72.6631 13.24 71.9431 13.4 71.2764 13.72C70.6097 14.04 70.0231 14.48 69.5164 15.04C69.0364 15.6 68.6497 16.2667 68.3564 17.04C68.0897 17.8133 67.9564 18.6533 67.9564 19.56ZM96.6942 30.4C95.2542 30.4 93.9209 30.12 92.6942 29.56C91.4676 29 90.4142 28.2267 89.5342 27.24C88.6542 26.2533 87.9609 25.1067 87.4542 23.8C86.9742 22.4667 86.7342 21.04 86.7342 19.52C86.7342 18 86.9609 16.5867 87.4142 15.28C87.8942 13.9733 88.5476 12.8267 89.3742 11.84C90.2009 10.8533 91.1876 10.08 92.3342 9.52C93.4809 8.96 94.7342 8.68 96.0942 8.68C97.6409 8.68 99.0276 9.05333 100.254 9.8C101.508 10.5467 102.481 11.52 103.174 12.72V0.799999H108.534V23.84C108.534 24.4 108.628 24.8 108.814 25.04C109.001 25.28 109.321 25.4133 109.774 25.44V30C108.841 30.1867 108.081 30.28 107.494 30.28C106.534 30.28 105.748 30.04 105.134 29.56C104.521 29.08 104.174 28.4533 104.094 27.68L103.974 26.36C103.201 27.6933 102.148 28.7067 100.814 29.4C99.5076 30.0667 98.1342 30.4 96.6942 30.4ZM98.0942 25.84C98.6009 25.84 99.1209 25.76 99.6542 25.6C100.188 25.4133 100.681 25.16 101.134 24.84C101.588 24.52 101.988 24.1467 102.334 23.72C102.708 23.2933 102.988 22.8267 103.174 22.32V17.32C102.961 16.7333 102.654 16.2 102.254 15.72C101.881 15.2133 101.441 14.7867 100.934 14.44C100.454 14.0667 99.9342 13.7733 99.3742 13.56C98.8409 13.3467 98.3076 13.24 97.7742 13.24C96.9742 13.24 96.2276 13.4133 95.5342 13.76C94.8676 14.1067 94.2942 14.5867 93.8142 15.2C93.3342 15.7867 92.9609 16.4667 92.6942 17.24C92.4276 18.0133 92.2942 18.8133 92.2942 19.64C92.2942 20.52 92.4409 21.3333 92.7342 22.08C93.0276 22.8267 93.4276 23.48 93.9342 24.04C94.4409 24.6 95.0409 25.04 95.7342 25.36C96.4542 25.68 97.2409 25.84 98.0942 25.84ZM123.475 30.4C121.769 30.4 120.235 30.1067 118.875 29.52C117.515 28.9333 116.355 28.1467 115.395 27.16C114.462 26.1467 113.742 24.9867 113.235 23.68C112.729 22.3733 112.475 21 112.475 19.56C112.475 18.0933 112.729 16.7067 113.235 15.4C113.742 14.0933 114.462 12.9467 115.395 11.96C116.355 10.9467 117.515 10.1467 118.875 9.56C120.235 8.97333 121.769 8.68 123.475 8.68C125.182 8.68 126.702 8.97333 128.035 9.56C129.395 10.1467 130.542 10.9467 131.475 11.96C132.435 12.9467 133.169 14.0933 133.675 15.4C134.182 16.7067 134.435 18.0933 134.435 19.56C134.435 21 134.182 22.3733 133.675 23.68C133.169 24.9867 132.449 26.1467 131.515 27.16C130.582 28.1467 129.435 28.9333 128.075 29.52C126.715 30.1067 125.182 30.4 123.475 30.4ZM117.995 19.56C117.995 20.4933 118.129 21.3467 118.395 22.12C118.689 22.8667 119.075 23.52 119.555 24.08C120.062 24.64 120.649 25.08 121.315 25.4C121.982 25.6933 122.702 25.84 123.475 25.84C124.249 25.84 124.969 25.6933 125.635 25.4C126.302 25.08 126.875 24.64 127.355 24.08C127.862 23.52 128.249 22.8533 128.515 22.08C128.809 21.3067 128.955 20.4533 128.955 19.52C128.955 18.6133 128.809 17.7733 128.515 17C128.249 16.2267 127.862 15.56 127.355 15C126.875 14.44 126.302 14.0133 125.635 13.72C124.969 13.4 124.249 13.24 123.475 13.24C122.702 13.24 121.982 13.4 121.315 13.72C120.649 14.04 120.062 14.48 119.555 15.04C119.075 15.6 118.689 16.2667 118.395 17.04C118.129 17.8133 117.995 18.6533 117.995 19.56Z" fill="#FDA14E"/>
</svg>
